<svg xmlns="http://www.w3.org/2000/svg" width="512" height="512" viewBox="0 0 512 512"><rect width="512" height="512" rx="116" fill="#fff0ec"/><path d="M139 242 132 135 219 178Q256 164 293 178L380 135 373 242Q405 375 256 385 108 375 139 242Z" fill="#fffaf4" stroke="#866651" stroke-width="12" stroke-linejoin="round"/><path d="m152 163 4 53 39-25m165-28-4 53-39-25" fill="#efb5b9"/><ellipse cx="199" cy="288" rx="28" ry="15" fill="#f4c4c0"/><ellipse cx="314" cy="288" rx="28" ry="15" fill="#f4c4c0"/><path d="M188 263q13-16 26 0m84 0q13-16 26 0m-81 15 13 11 13-11m-13 11q-17 25-31 3m31-3q17 25 31 3" fill="none" stroke="#866651" stroke-width="9" stroke-linecap="round"/><path d="M256 148C205 116 224 78 256 104 288 78 307 116 256 148" fill="#c9697e"/></svg>
